HIERARCHY
ROOT Hips
{
  OFFSET 0 0 0
  CHANNELS 6 Xposition Yposition Zposition Zrotation Yrotation Xrotation
  JOINT LeftThigh
  {
    OFFSET 8.409438 0 -5.917753
    CHANNELS 3 Zrotation Yrotation Xrotation
    JOINT LeftLeg
    {
      OFFSET 0 0 -42.358652
      CHANNELS 3 Zrotation Yrotation Xrotation
      JOINT LeftFoot
      {
        OFFSET 0 0 -39.357303
        CHANNELS 3 Zrotation Yrotation Xrotation
      }
    }
  }
  JOINT RightThigh
  {
    OFFSET -8.409438 0 -5.917753
    CHANNELS 3 Zrotation Yrotation Xrotation
    JOINT RightLeg
    {
      OFFSET 0 0 -42.358652
      CHANNELS 3 Zrotation Yrotation Xrotation
      JOINT RightFoot
      {
        OFFSET 0 0 -39.357303
        CHANNELS 3 Zrotation Yrotation Xrotation
      }
    }
  }
  JOINT SpineLow
  {
    OFFSET 0 0 4.719101
    CHANNELS 3 Zrotation Yrotation Xrotation
    JOINT SpineMid
    {
      OFFSET 0 0 12.899191
      CHANNELS 3 Zrotation Yrotation Xrotation
      JOINT Chest
      {
        OFFSET 0 0 12.899191
        CHANNELS 3 Zrotation Yrotation Xrotation
        JOINT LeftShoulder
        {
          OFFSET 7.550562 1.41573 9.438202
          CHANNELS 3 Zrotation Yrotation Xrotation
          JOINT LeftArm
          {
            OFFSET 9.155056 0 4.247191
            CHANNELS 3 Zrotation Yrotation Xrotation
            JOINT LeftForearm
            {
              OFFSET 0 0 25.771955
              CHANNELS 3 Zrotation Yrotation Xrotation
              JOINT LeftHand
              {
                OFFSET 0 0 25.197169
                CHANNELS 3 Zrotation Yrotation Xrotation
              }
            }
          }
        }
        JOINT RightShoulder
        {
          OFFSET -7.550562 1.41573 9.438202
          CHANNELS 3 Zrotation Yrotation Xrotation
          JOINT RightArm
          {
            OFFSET -9.155056 0 4.247191
            CHANNELS 3 Zrotation Yrotation Xrotation
            JOINT RightForearm
            {
              OFFSET 0 0 -25.771955
              CHANNELS 3 Zrotation Yrotation Xrotation
              JOINT RightHand
              {
                OFFSET 0 0 -25.197169
                CHANNELS 3 Zrotation Yrotation Xrotation
              }
            }
          }
        }
        JOINT Neck
        {
          OFFSET 0 0 15.101124
          CHANNELS 3 Zrotation Yrotation Xrotation
          JOINT Head
          {
            OFFSET 0 0 11.325843
            CHANNELS 3 Zrotation Yrotation Xrotation
            End Site
            {
              OFFSET 0 0 14.157303
            }
          }
        }
      }
    }
  }
}
MOTION
Frames: 8
Frame Time: 0.0
0.0  101.685394  0.0  -97.013869  56.510542  -179.489599  32.915598  -38.043367  -47.805978  -17.134229  21.139318  37.166323  -11.05538  -2.803034  -3.961498  -15.886135  40.411939  -53.069257  7.910958  -4.281186  50.459505  -12.306075  -6.401244  -15.135002  -2.875799  -1.549028  2.294842  -8.008488  -3.950001  6.453875  -8.008488  -3.950001  6.453875  -7.08944  28.570564  11.934427  119.829541  52.365538  174.229158  -29.085241  -8.615416  90.812666  36.235041  -11.696685  19.239295  -5.59435  0.996589  16.710353  63.202439  37.075201  35.053022  -22.965691  -1.3318  -140.22652  62.330694  25.271845  24.259231  -6.178316  -15.045994  17.929985  -4.160114  -11.477112  13.215391  
0.0  101.685394  0.0  -95.358921  56.458099  -177.679083  33.809667  -37.686817  -47.940589  -17.368619  20.935012  37.287174  -11.422899  -2.884338  -4.038354  -16.444678  38.980756  -55.066817  7.223645  -4.646134  51.952215  -12.654804  -6.023641  -14.694474  -3.021411  -1.614181  2.164174  -8.405828  -4.129855  6.114005  -8.405828  -4.129855  6.114005  -7.005002  28.640189  11.784771  119.306876  52.709277  174.15505  -29.138714  -9.359182  90.123622  36.204969  -12.652287  19.234716  -5.731877  1.443756  17.037726  62.825042  36.930027  34.810459  -22.778532  -1.622137  -140.030364  62.878335  25.24079  23.974328  -5.66793  -14.6417  18.329502  -3.783498  -11.162755  13.534173  
0.0  101.685394  0.0  -92.577668  56.481676  -174.804378  34.318802  -37.441072  -47.478553  -17.380681  20.486622  37.34641  -11.547409  -2.989056  -4.10051  -17.904279  36.726441  -58.234254  6.164876  -3.726243  54.117259  -11.369202  -5.835694  -14.527611  -3.075034  -1.652569  2.067999  -8.550557  -4.241972  5.859772  -8.550557  -4.241972  5.859772  -6.896062  28.560794  11.394021  119.022636  52.836867  174.381594  -29.194661  -10.16897  89.747416  36.271094  -13.688318  19.091076  -5.923678  1.861519  17.105522  62.272203  36.774785  34.3909  -22.497426  -1.898586  -139.881243  63.45856  25.308168  23.645682  -5.149136  -14.284669  18.491512  -3.404722  -10.880663  13.674367  
0.0  101.685394  0.0  -88.961608  56.529096  -171.396724  34.129103  -37.34168  -46.279711  -17.362006  19.8084  37.425536  -11.243716  -2.97442  -4.131718  -19.082432  33.913368  -61.326022  5.290619  -1.434054  56.673937  -8.985414  -6.151757  -14.49045  -3.064586  -1.650454  2.014422  -8.518516  -4.244133  5.712503  -8.518516  -4.244133  5.712503  -6.62161  28.349905  11.117127  119.22975  52.791841  175.171776  -29.184572  -11.062288  89.733951  36.287289  -14.702182  18.867047  -6.173194  2.203738  17.226222  61.634195  36.730029  33.796955  -22.024805  -2.060236  -139.875024  63.890841  25.473602  23.177011  -4.687119  -13.952134  18.491372  -3.071153  -10.616991  13.691145  
0.0  101.685394  0.0  -84.703326  56.499697  -167.603219  33.411262  -37.394542  -44.658071  -17.210082  19.12722  37.646027  -10.408304  -2.901797  -4.041883  -19.564516  30.68636  -63.936172  4.649134  1.740172  59.153183  -6.046382  -6.462318  -14.333344  -3.010128  -1.608107  1.986911  -8.363858  -4.137039  5.628341  -8.363859  -4.137039  5.628341  -6.198688  28.11036  11.141454  119.94292  52.803309  176.38752  -29.143098  -11.860692  90.070085  36.13216  -15.586291  18.609  -6.426965  2.508249  17.429384  60.924641  36.621167  33.03045  -21.654003  -2.289996  -139.665128  64.411597  25.609733  22.939115  -4.27772  -13.628559  18.356295  -2.779406  -10.360553  13.605271  
0.0  101.685394  0.0  -80.025022  56.349941  -163.678729  31.962041  -37.613706  -42.4416  -16.913937  18.547107  37.974655  -8.865301  -2.83289  -3.894144  -19.188352  27.406134  -65.996972  4.429422  5.011471  61.60755  -3.255485  -6.645496  -14.015459  -2.930657  -1.529883  2.003013  -8.14003  -3.928709  5.65737  -8.14003  -3.928709  5.657371  -5.701459  27.747993  11.339945  121.089738  52.799197  177.962925  -29.173686  -12.422105  90.706448  35.979795  -16.374094  18.299788  -6.659899  2.783648  17.630438  60.211111  36.436469  32.125498  -21.192302  -2.464936  -139.464528  65.046854  25.68512  22.868755  -3.874617  -13.284431  18.058928  -2.496273  -10.087857  13.397848  
0.0  101.685394  0.0  -75.133749  56.08045  -159.64305  29.843083  -37.749542  -39.671591  -15.945522  17.529071  38.516707  -7.94362  -2.786499  -3.785053  -18.098107  24.489051  -67.792629  4.512636  7.639401  64.344551  -1.115439  -6.642422  -13.698016  -2.817575  -1.423074  2.02918  -7.822146  -3.64425  5.709062  -7.822145  -3.64425  5.709062  -5.234755  27.295575  11.549388  122.249108  52.58664  179.486491  -29.334094  -12.865285  91.578453  35.987608  -17.08199  17.850657  -6.986422  3.036777  17.839032  59.59136  36.146914  31.192885  -20.826735  -2.619524  -139.124514  65.653372  25.763974  22.804745  -3.553453  -12.923512  17.661149  -2.276548  -9.804674  13.113299  
0.0  101.685394  0.0  -70.107057  55.751428  -155.616574  27.302906  -37.570437  -36.428109  -14.768858  16.289542  39.134807  -6.978455  -2.750679  -3.868561  -16.267955  22.184719  -69.310996  4.976108  9.408557  67.515389  -0.016897  -6.695782  -13.38913  -2.698431  -1.263961  2.082085  -7.483933  -3.214808  5.828302  -7.483934  -3.214808  5.828303  -4.734454  26.764  11.867295  123.409389  52.348988  -179.061078  -29.607095  -13.438781  92.584556  36.113788  -17.737439  17.301911  -7.262853  3.180178  18.004077  59.138695  35.764868  30.292889  -20.546945  -2.732063  -138.768217  66.220012  25.881282  22.769681  -3.177402  -12.58044  17.178761  -2.016349  -9.533255  12.7658  
